<?xml version="1.0" encoding="UTF-8" standalone="no"?>
<!-- Created with Inkscape (http://www.inkscape.org/) -->

<svg
   xmlns:dc="http://purl.org/dc/elements/1.1/"
   xmlns:cc="http://creativecommons.org/ns#"
   xmlns:rdf="http://www.w3.org/1999/02/22-rdf-syntax-ns#"
   xmlns:svg="http://www.w3.org/2000/svg"
   xmlns="http://www.w3.org/2000/svg"
   xmlns:sodipodi="http://sodipodi.sourceforge.net/DTD/sodipodi-0.dtd"
   xmlns:inkscape="http://www.inkscape.org/namespaces/inkscape"
   width="1000"
   height="198"
   viewBox="0 0 264.58333 52.3875"
   version="1.1"
   id="svg8"
   inkscape:version="0.92.4 (5da689c313, 2019-01-14)"
   sodipodi:docname="Logo Banner.svg"
   inkscape:export-filename="C:\Users\jdath\OneDrive\Documents\Websites Refs\Grantham Pest Control\Logos\gpc-banner.png"
   inkscape:export-xdpi="102.471"
   inkscape:export-ydpi="102.471">
  <defs
     id="defs2">
    <filter
       inkscape:collect="always"
       style="color-interpolation-filters:sRGB"
       id="filter6170"
       x="-0.0050839033"
       width="1.0101678"
       y="-0.085954384"
       height="1.1719088">
      <feGaussianBlur
         inkscape:collect="always"
         stdDeviation="0.84874976"
         id="feGaussianBlur6172" />
    </filter>
    <filter
       inkscape:collect="always"
       style="color-interpolation-filters:sRGB"
       id="filter6208"
       x="-0.01679954"
       width="1.0335991"
       y="-0.01680046"
       height="1.0336009">
      <feGaussianBlur
         inkscape:collect="always"
         stdDeviation="1.3812475"
         id="feGaussianBlur6210" />
    </filter>
  </defs>
  <sodipodi:namedview
     id="base"
     pagecolor="#ffffff"
     bordercolor="#666666"
     borderopacity="1.0"
     inkscape:pageopacity="0"
     inkscape:pageshadow="2"
     inkscape:zoom="0.98994949"
     inkscape:cx="511.28911"
     inkscape:cy="163.48438"
     inkscape:document-units="px"
     inkscape:current-layer="g4738"
     showgrid="false"
     units="px"
     inkscape:pagecheckerboard="false"
     borderlayer="false"
     inkscape:window-width="1920"
     inkscape:window-height="1017"
     inkscape:window-x="-8"
     inkscape:window-y="-8"
     inkscape:window-maximized="1" />
  <metadata
     id="metadata5">
    <rdf:RDF>
      <cc:Work
         rdf:about="">
        <dc:format>image/svg+xml</dc:format>
        <dc:type
           rdf:resource="http://purl.org/dc/dcmitype/StillImage" />
        <dc:title></dc:title>
      </cc:Work>
    </rdf:RDF>
  </metadata>
  <path
     style="display:none;fill:#ff0000;stroke-width:0.54599935"
     d="M 36.739134,-9.2274606 C 8.5324021,-45.59325 3.6872355,-96.01436 24.535311,-136.22634 c 6.719169,-12.96003 11.652759,-19.75481 21.747307,-29.95147 9.604478,-9.70151 16.174589,-14.66834 28.380839,-21.45471 30.447303,-16.92792 69.945663,-18.80984 102.732313,-4.89471 31.11461,13.20549 55.38082,39.0171 66.37273,70.59968 13.12749,37.71865 7.01943,77.88462 -16.8768,110.98025 -4.1045,5.6845994 -16.23673,18.1293894 -21.70119,22.26027 -16.47248,12.45236 -32.10111,19.68009 -50.51114,23.35973 -14.0839,2.81496 -31.14595,2.98079 -45.03552,0.43772 C 91.041467,31.70448 73.943351,24.09589 58.537413,12.36823 52.303928,7.6230694 41.530064,-3.0506806 36.73986,-9.2281906 Z m 38.380242,1.12185 c 21.865272,16.12336 48.373954,22.0661906 74.614314,16.72728 12.1698,-2.47605 21.63565,-6.37654 33.41893,-13.77051 3.98294,-2.49929 5.57087,-3.89937 13.54548,-11.9431594 9.94054,-10.02778 12.31429,-13.21063 17.4679,-23.4305 3.78122,-7.49839 8.75524,-23.34618 8.90531,-28.3734 0.0111,-0.37128 -40.55165,-0.47716 -91.92308,-0.23995 l -91.942876,0.42456 0.318734,2.19327 c 0.530537,3.65063 3.058717,12.67745 5.000488,17.85431 5.867457,15.64273 17.225637,30.69974 30.5948,40.5580994 z m 56.266344,-85.5022594 92.13555,-0.41024 -0.90575,-4.76602 c -3.50957,-18.46725 -10.91275,-33.43217 -23.1056,-46.7061 -13.88262,-15.11352 -32.78368,-25.26719 -53.32912,-28.64849 -25.12231,-4.13453 -51.519084,2.38998 -71.546149,17.6841 -5.832212,4.4539 -14.757013,13.61229 -18.803629,19.29577 -7.248721,10.18083 -12.53614,21.87748 -15.055991,33.30626 -1.551306,7.03595 -2.060474,10.12407 -1.724241,10.45734 0.109673,0.1087 41.660394,0.013 92.33493,-0.21262 z"
     id="path4662"
     inkscape:connector-curvature="0"
     inkscape:label="Stop"
     sodipodi:insensitive="true" />
  <g
     id="g4703"
     transform="translate(-1.1339286,-0.676148)">
    <g
       id="g4724"
       transform="matrix(0.62555759,0,0,0.62555759,-4.398483,20.87421)">
      <g
         id="g4738"
         transform="translate(-3.9116135e-7,12.731002)">
        <g
           transform="matrix(0.87575879,0,0,0.87575879,22.74198,-30.038658)"
           id="g4693">
          <g
             id="g4678"
             inkscape:label="Logo"
             transform="matrix(0.18098385,0,0,0.18098385,0.52033988,-2.6812106)"
             style="fill:#008080">
            <path
               inkscape:label="roach"
               inkscape:connector-curvature="0"
               id="path4649"
               d="m 105.46669,207.05049 -1.20585,-0.14604 0.10563,-1.01996 c 0.0581,-0.561 0.12078,-1.24809 0.13931,-1.52687 0.0185,-0.27877 0.11525,-1.25219 0.21494,-2.16315 l 0.18125,-1.65626 -0.64685,-1.38502 c -0.35576,-0.76176 -0.72923,-1.63783 -0.82991,-1.94683 -0.10069,-0.309 -0.35824,-0.95118 -0.57233,-1.42708 -0.38041,-0.84556 -0.67993,-1.62162 -1.5862,-4.10997 -0.24554,-0.67418 -0.50097,-1.35557 -0.56762,-1.5142 -0.22021,-0.52415 -1.850946,-5.04023 -1.952756,-5.40787 -0.16303,-0.58869 -1.64872,-5.27381 -2.25518,-7.11166 -0.30922,-0.93708 -0.56221,-1.80731 -0.56221,-1.93384 0,-0.12652 -0.222,-0.98217 -0.49333,-1.90145 -0.27132,-0.91927 -0.62514,-2.19056 -0.78626,-2.82508 -0.54899,-2.16207 -1.03649,-4.18089 -1.16658,-4.83103 -0.0714,-0.35692 -0.29595,-1.33034 -0.49897,-2.16315 -0.20301,-0.83281 -0.4311,-1.93601 -0.50687,-2.45157 -0.0758,-0.51554 -0.34029,-2.10545 -0.58783,-3.53313 -0.7631,-4.40112 -1.21509,-8.4992 -1.37626,-12.47835 -0.0817,-2.01781 -0.0734,-2.10575 0.22655,-2.37946 0.98989,-0.90345 6.59406,-3.97403 8.79479,-4.81875 0.43624,-0.16745 0.922936,-0.36577 1.081566,-0.4407 0.89878,-0.42461 3.97453,-1.48141 4.06071,-1.39524 0.0969,0.0969 -0.43554,2.93384 -0.57768,3.07802 -0.0914,0.0927 -0.49942,0.35229 -0.90667,0.57683 -1.83942,1.01416 -7.233726,4.56908 -8.849696,5.83207 l -1.17895,0.92143 0.0822,1.08157 c 0.28602,3.76458 1.38936,10.07001 2.61173,14.92571 0.8036,3.19221 1.6837,6.47699 2.14444,8.00364 1.71191,5.67245 2.633766,8.59599 3.478646,11.03205 0.41264,1.18973 0.96462,2.81209 1.22664,3.60524 0.26202,0.79316 0.52243,1.50699 0.57869,1.58631 0.0563,0.0793 0.14574,0.32589 0.19883,0.54794 0.0531,0.22204 0.44306,1.2928 0.8666,2.37946 0.42355,1.08665 0.94803,2.49489 1.16552,3.12941 0.21748,0.63452 0.51676,1.41326 0.66505,1.73052 0.93262,1.99531 1.32151,4.12111 0.99947,5.46349 -0.15101,0.62947 -0.14394,1.27596 0.0404,3.70078 0.12289,1.61593 0.19179,2.98927 0.1531,3.05185 -0.0799,0.12936 -0.23619,0.12284 -1.9081,-0.0797 z m 51.96945,-2.65467 c 0.0657,-1.48716 0.10691,-3.0284 0.0916,-3.42498 -0.0154,-0.39658 -0.0419,-1.37 -0.0589,-2.16315 l -0.031,-1.4421 1.2509,-3.10051 c 0.68798,-1.70528 1.45656,-3.71456 1.70793,-4.46506 0.25138,-0.7505 0.52491,-1.52923 0.60785,-1.73051 0.083,-0.20129 0.42515,-1.1447 0.76046,-2.09649 0.33531,-0.95178 0.81869,-2.31456 1.07417,-3.0284 0.25549,-0.71384 0.4918,-1.44414 0.52514,-1.62288 0.0334,-0.17874 0.24853,-0.86013 0.47821,-1.5142 0.61422,-1.7491 2.15653,-6.54223 2.22671,-6.92005 0.0333,-0.17929 0.43022,-1.59142 0.88205,-3.13807 0.45183,-1.54664 0.97361,-3.39613 1.15951,-4.10997 0.5514,-2.11729 1.49721,-6.00227 1.6501,-6.77787 0.0782,-0.39657 0.23483,-1.14713 0.34811,-1.6679 0.1133,-0.52077 0.25048,-1.2995 0.30487,-1.73052 0.0544,-0.43101 0.193,-1.30281 0.30804,-1.93734 0.42936,-2.36831 0.46839,-2.69439 0.56418,-4.71306 l 0.098,-2.0648 -0.84592,-0.61993 c -2.0517,-1.50358 -3.05286,-2.20854 -3.65801,-2.57576 -0.35692,-0.21659 -1.29789,-0.82125 -2.09104,-1.34369 -0.79316,-0.52244 -1.96126,-1.2567 -2.59578,-1.6317 -0.63452,-0.37499 -1.2662,-0.76866 -1.40373,-0.87481 -0.30132,-0.23258 -1.0078,-2.98258 -0.81802,-3.18416 0.0786,-0.0834 0.41856,-0.0175 0.88618,0.17176 0.4173,0.16893 1.31034,0.51021 1.98451,0.75842 3.91296,1.44056 7.96848,3.4568 10.16913,5.05569 l 1.16535,0.84667 0.0351,1.02382 c 0.0194,0.56309 -0.0313,1.65201 -0.1126,2.4198 -0.0813,0.7678 -0.18262,2.07738 -0.22519,2.91019 -0.0426,0.83282 -0.20204,2.39028 -0.35437,3.46104 -0.15233,1.07076 -0.34785,2.49844 -0.43449,3.17261 -0.0866,0.67418 -0.21859,1.51781 -0.29321,1.87473 -0.0746,0.35692 -0.23415,1.20055 -0.35453,1.87473 -0.55506,3.10882 -1.55126,7.58896 -2.40498,10.81573 -0.15739,0.59487 -0.47705,1.82786 -0.71038,2.73999 -0.23331,0.91212 -0.48736,1.7882 -0.56454,1.94683 -0.0772,0.15863 -0.3726,1.13205 -0.65646,2.16315 -0.5572,2.02388 -1.66369,5.51279 -2.08097,6.56154 -0.14202,0.35692 -0.55381,1.55747 -0.91509,2.66788 -0.36129,1.11041 -0.99456,2.89501 -1.40727,3.96577 -0.41271,1.07076 -1.08782,2.82291 -1.50024,3.89366 -0.41242,1.07076 -0.95524,2.3894 -1.20627,2.93032 -0.25103,0.5409 -0.45642,1.04199 -0.45642,1.11351 0,0.0715 -0.16847,0.50502 -0.37437,0.96335 -0.34376,0.76518 -0.36712,0.93944 -0.28571,2.13121 0.0488,0.71384 0.18455,1.88193 0.30173,2.59577 0.11717,0.71384 0.21329,1.53275 0.21359,1.81982 5.5e-4,0.4912 -0.0313,0.52717 -0.54023,0.6113 -0.29744,0.0492 -0.98909,0.0901 -1.53701,0.091 l -0.99622,0.002 z m -25.88942,-7.06628 c -2.64184,-5.1187 -5.6492,-8.98543 -8.87879,-11.41595 -3.29594,-2.48045 -3.79559,-2.89169 -5.44447,-4.48116 -4.00625,-3.86186 -6.53432,-7.65935 -9.21769,-13.84616 -0.43001,-0.99144 -0.93262,-2.25687 -1.11692,-2.81208 -0.1843,-0.55521 -0.44693,-1.3015 -0.58362,-1.65842 -0.1367,-0.35691 -0.35044,-1.07075 -0.47498,-1.58631 -0.12455,-0.51554 -0.38666,-1.59235 -0.58249,-2.39291 -0.80755,-3.30146 -1.12336,-7.03302 -0.96303,-11.37911 0.23338,-6.32614 1.17607,-11.38947 3.26214,-17.52149 1.12294,-3.3009 1.46174,-4.21335 1.99755,-5.3798 0.28437,-0.61909 0.51704,-1.19409 0.51704,-1.27779 0,-0.33442 4.54526,-9.28948 4.96515,-9.78233 0.10136,-0.11897 0.4744,-0.73843 0.82898,-1.37659 l 0.64469,-1.16027 0.18292,-2.80549 c 0.20729,-3.17954 0.29646,-3.92315 0.78601,-6.55495 0.48987,-2.63358 1.15677,-5.15306 1.76068,-6.6517 1.17111,-2.90618 1.41604,-3.49116 1.88596,-4.5044 0.64856,-1.39842 0.80842,-2.21304 0.74837,-3.8136 -0.0423,-1.12807 -0.11696,-1.46593 -0.50006,-2.26337 -0.67737,-1.40997 -1.71347,-2.30736 -2.66401,-2.30736 -0.56245,0 -3.03457,1.15722 -4.22604,1.97825 -2.92854,2.01803 -6.34013,5.17007 -9.01886,8.33275 -0.73897,0.87247 -1.49745,1.76421 -1.68551,1.98164 -0.18806,0.21743 -0.34193,0.45068 -0.34193,0.51834 0,0.10872 3.03288,0.22776 9.61789,0.3775 1.12579,0.0256 2.70362,0.0935 3.5063,0.151 1.27731,0.0914 1.44627,0.13393 1.35409,0.34061 -0.0579,0.12989 -0.30543,0.8202 -0.55,1.53404 l -0.44466,1.29789 -0.64894,0.0975 c -0.35692,0.0536 -1.233,0.10277 -1.94684,0.10925 -0.71384,0.006 -1.68725,0.0723 -2.16314,0.14624 -0.47589,0.0739 -1.6747,0.16954 -2.66403,0.21243 -0.98932,0.0429 -2.57923,0.14567 -3.53314,0.22839 -0.9539,0.0827 -2.66641,0.20563 -3.80556,0.27311 -2.04304,0.12103 -2.07582,0.12833 -2.411336,0.53737 -0.28889,0.35219 -4.96321,9.55919 -4.96321,9.77603 0,0.0414 -0.39643,0.90469 -0.88095,1.91848 -0.48452,1.01379 -1.00672,2.16773 -1.16045,2.5643 -0.15372,0.39658 -0.5295,1.27266 -0.83508,1.94684 -0.30557,0.67418 -0.80076,1.84228 -1.1004,2.59577 -0.29965,0.7535 -0.59214,1.43489 -0.64998,1.5142 -0.11604,0.15913 -1.95715,4.79626 -2.80557,7.06629 -0.29644,0.79315 -0.58765,1.50699 -0.64713,1.5863 -0.0595,0.0793 -0.28735,0.69582 -0.50638,1.37 -0.21902,0.67417 -0.49687,1.42046 -0.61743,1.65841 -0.21993,0.43405 -1.82516,5.01271 -2.32569,6.63365 -0.14695,0.47589 -0.52683,1.61154 -0.84418,2.52367 -0.63788,1.83341 -1.43903,4.42658 -1.9826,6.41733 -0.19491,0.71384 -0.4079,1.39523 -0.47332,1.51421 -0.0654,0.11897 -0.29031,0.86526 -0.49979,1.65841 -0.77452,2.93266 -1.14359,4.36168 -1.48978,5.76839 -0.19519,0.79315 -0.44549,1.76657 -0.55621,2.16315 -0.11073,0.39657 -0.27923,1.14286 -0.37445,1.65841 -0.0952,0.51555 -0.35096,1.74854 -0.56831,2.73998 -0.21735,0.99145 -0.46779,2.25689 -0.55653,2.8121 -0.0887,0.5552 -0.26025,1.59351 -0.38114,2.30735 -0.12088,0.71384 -0.31809,1.97928 -0.43823,2.81209 -0.4579,3.17415 -0.48475,3.1978 -0.40932,0.36052 0.0401,-1.50698 0.13008,-3.1618 0.20005,-3.67734 0.25749,-1.89742 0.43164,-3.26281 0.50584,-3.96577 0.12206,-1.15638 0.21706,-1.76504 0.57395,-3.67735 0.18503,-0.99144 0.41146,-2.25689 0.50316,-2.81209 0.1574,-0.95291 0.59577,-2.9136 1.38766,-6.20657 0.19148,-0.79621 0.34813,-1.55582 0.34813,-1.68803 0,-0.1322 0.35692,-1.47339 0.79316,-2.98039 0.43623,-1.50701 0.79315,-2.8234 0.79315,-2.92531 0,-0.20336 0.4578,-1.70954 1.72278,-5.66802 0.45623,-1.42768 0.96365,-3.01759 1.12761,-3.53314 0.4046,-1.27227 1.63431,-4.74607 2.11855,-5.9847 0.21706,-0.55521 0.55638,-1.49618 0.75404,-2.09105 0.19766,-0.59486 0.44713,-1.27625 0.55438,-1.5142 0.10725,-0.23795 0.43453,-1.08157 0.72728,-1.87473 0.29275,-0.79315 0.68032,-1.76656 0.86125,-2.16314 0.18093,-0.39658 0.53249,-1.24021 0.78125,-1.87473 0.24876,-0.63452 0.57118,-1.41326 0.71649,-1.73052 0.14531,-0.31726 0.60538,-1.42047 1.02237,-2.45157 0.41699,-1.03109 0.95124,-2.26066 1.18722,-2.73236 0.23598,-0.4717 0.51218,-1.0882 0.61378,-1.36999 0.35964,-0.99747 4.151,-8.73937 5.35576,-10.9364 l 0.65508,-1.19461 -0.24436,-0.60801 c -0.21176,-0.52689 -0.23237,-0.96393 -0.15447,-3.27589 0.1225,-3.63591 0.23514,-7.42861 0.29764,-10.02258 0.33481,-13.89411 0.3653,-14.39425 1.0637,-17.44691 l 0.56032,-2.44909 -0.33306,-0.72352 c -0.18318,-0.39794 -0.82689,-1.7878 -1.43047,-3.08858 -0.60357,-1.30078 -1.0783,-2.45724 -1.05495,-2.56991 0.053,-0.25553 1.89446,-1.07881 2.46841,-1.10354 l 0.42465,-0.0183 0.35454,1.5863 c 0.194996,0.87247 0.473096,2.07302 0.617996,2.66789 0.1449,0.59486 0.33761,1.4057 0.42824,1.80186 0.0906,0.39616 0.27078,0.7796 0.40032,0.8521 0.96069,0.53762 1.30843,1.77482 0.97671,3.47495 -0.1238,0.63452 -0.2891,1.93241 -0.36733,2.8842 -0.0782,0.95178 -0.21021,2.40077 -0.2933,3.21998 -0.0831,0.8192 -0.1827,2.47401 -0.22137,3.67735 -0.0387,1.20333 -0.10666,2.35012 -0.1511,2.54841 -0.0444,0.19828 -0.14084,1.65841 -0.21421,3.24472 -0.0734,1.5863 -0.19285,4.18208 -0.2655,5.76839 -0.0726,1.5863 -0.17732,3.53314 -0.23261,4.32629 -0.0553,0.79315 -0.0652,1.40965 -0.0221,1.36999 0.0431,-0.0397 0.64273,-0.84572 1.33241,-1.79126 0.68969,-0.94554 1.68527,-2.23313 2.21242,-2.86133 1.0591,-1.26211 4.89084,-5.40294 5.06272,-5.47109 0.0598,-0.0237 0.6209,-0.51239 1.24693,-1.08596 1.25978,-1.15421 1.57033,-1.38678 3.42517,-2.5652 1.52792,-0.9707 2.95884,-1.5599 4.39727,-1.81063 2.91897,-0.50879 7.23096,1.33647 10.03033,4.29236 l 0.86182,0.91001 h 3.07856 3.07855 l 1.47267,-1.31647 c 2.24072,-2.00304 4.13787,-3.13491 6.11182,-3.64641 1.18164,-0.3062 3.7729,-0.30525 4.81648,0.002 1.18592,0.34888 3.91025,1.84951 4.63007,2.55036 0.10509,0.10232 0.64533,0.54911 1.20054,0.99286 1.79828,1.43728 6.39064,6.18049 7.39396,7.63683 0.12982,0.18844 0.73101,0.95911 1.33598,1.71261 0.60498,0.7535 1.26958,1.62324 1.47691,1.93276 l 0.37695,0.56277 -0.0715,-1.86065 c -0.0394,-1.02337 -0.13316,-2.49593 -0.20851,-3.27236 -0.0753,-0.77644 -0.1375,-2.13922 -0.1381,-3.02841 -5.5e-4,-0.88919 -0.063,-2.15494 -0.13862,-2.81278 -0.0756,-0.65785 -0.143,-1.76105 -0.14969,-2.45157 -0.0195,-2.01535 -0.79493,-12.13414 -1.02224,-13.34015 -0.0718,-0.38065 -0.13046,-1.18673 -0.13046,-1.79129 v -1.0992 l 0.61591,-0.59014 c 0.65355,-0.62621 0.81793,-1.02272 1.25931,-3.03776 0.3408,-1.55583 0.9942,-4.1136 1.09076,-4.26984 0.0429,-0.0695 0.31795,-0.006 0.61107,0.14116 0.29311,0.14717 0.86863,0.37737 1.27893,0.51156 0.41031,0.1342 0.812,0.32351 0.89266,0.42069 0.10401,0.12533 -0.0356,0.55282 -0.4802,1.47025 -0.34477,0.71145 -1.03213,2.13436 -1.52748,3.16202 l -0.90064,1.86847 0.18595,0.6552 c 0.48606,1.71258 0.56824,2.1012 0.78271,3.70121 0.47264,3.52603 0.51401,4.12131 0.58502,8.41866 0.04,2.41912 0.1067,5.50161 0.14827,6.84997 0.0416,1.34836 0.1113,3.91169 0.15496,5.69628 0.0437,1.7846 0.10811,4.21007 0.14322,5.38993 0.0593,1.99429 0.0423,2.17992 -0.24122,2.63878 -0.27592,0.44645 -0.28387,0.51701 -0.0832,0.73899 0.18935,0.20951 1.12021,1.94253 2.61051,4.86013 0.95329,1.86628 2.15043,4.36466 2.41067,5.03097 0.15841,0.40558 0.50789,1.19168 0.77662,1.74689 0.74997,1.54946 2.97374,6.70901 3.91573,9.08521 1.30476,3.29125 1.79117,4.5486 2.14784,5.55208 0.21144,0.59487 0.435,1.14647 0.49682,1.22578 0.0618,0.0793 0.34471,0.8256 0.62867,1.65842 0.28397,0.8328 0.94717,2.74719 1.47378,4.25418 1.32809,3.80054 2.40862,7.20273 3.22896,10.16679 0.16463,0.59486 0.35145,1.17892 0.41515,1.29789 0.0637,0.11897 0.26847,0.83281 0.45503,1.58631 0.18657,0.75349 0.5232,2.05138 0.74807,2.88419 2.15655,7.98687 3.89723,18.60561 3.85324,23.50619 -0.0155,1.72581 -0.1424,1.52396 -0.40804,-0.64894 -0.21452,-1.75484 -0.4813,-3.40122 -0.8763,-5.40787 -0.16394,-0.83281 -0.39987,-2.0658 -0.52429,-2.73998 -0.12443,-0.67418 -0.31146,-1.51781 -0.41563,-1.87473 -0.10418,-0.35692 -0.49542,-1.97928 -0.86943,-3.60525 -0.37402,-1.62596 -0.99652,-4.02957 -1.38334,-5.34134 -0.38683,-1.31178 -0.70236,-2.47988 -0.70119,-2.59578 0.002,-0.23899 -0.51061,-1.91114 -1.75405,-5.71705 -0.47118,-1.44217 -0.88021,-2.74006 -0.90896,-2.8842 -0.0287,-0.14413 -0.22239,-0.74877 -0.43033,-1.34364 -0.20792,-0.59486 -0.51272,-1.50338 -0.67731,-2.01893 -0.16459,-0.51555 -0.52832,-1.52142 -0.80829,-2.23526 -0.27997,-0.71383 -0.79559,-2.10906 -1.14583,-3.1005 -0.35024,-0.99145 -0.78937,-2.22774 -0.97583,-2.74734 -0.39298,-1.09501 -2.28493,-5.81575 -2.71345,-6.77051 -0.16019,-0.35692 -0.47162,-1.13565 -0.69208,-1.73052 -0.49574,-1.33772 -0.71786,-1.86285 -1.43997,-3.40427 -0.31331,-0.66879 -0.56965,-1.27065 -0.56965,-1.33747 0,-0.0668 -0.3799,-0.92543 -0.84423,-1.90801 -0.46433,-0.98259 -0.89555,-1.94839 -0.95827,-2.14625 -0.29838,-0.9412 -3.40405,-7.26868 -4.93931,-10.06333 -0.49572,-0.90237 -0.90131,-1.69262 -0.90131,-1.75611 0,-0.30549 -0.51852,-0.4487 -1.8912,-0.52233 -0.82375,-0.0442 -1.8871,-0.1404 -2.36299,-0.21382 -0.47589,-0.0734 -1.31952,-0.13335 -1.87473,-0.13318 -0.5552,1.4e-4 -2.17756,-0.0938 -3.60524,-0.20884 -1.42768,-0.11503 -3.60164,-0.28296 -4.83102,-0.37317 -2.43086,-0.17839 -2.73999,-0.2296 -2.73999,-0.45391 0,-0.0818 -0.0961,-0.35325 -0.21357,-0.60318 -0.37096,-0.78931 -0.79516,-2.14157 -0.71334,-2.27396 0.0433,-0.07 0.93469,-0.1274 1.98094,-0.12753 1.04625,-1.4e-4 3.91399,-0.0704 6.37277,-0.15612 2.45878,-0.0857 4.87141,-0.16674 5.3614,-0.18002 l 0.8909,-0.0242 -0.37822,-0.50473 c -1.94069,-2.58984 -5.45486,-6.23723 -8.31102,-8.62613 -1.56395,-1.30808 -4.25408,-3.00315 -5.41762,-3.41367 -2.01048,-0.70934 -3.47206,0.28889 -4.27439,2.91931 -0.62152,2.03766 -0.41925,3.03861 1.40044,6.93029 0.54862,1.17329 2.07313,5.71358 2.35755,7.02123 0.68809,3.16357 1.19918,7.03923 1.30667,9.9088 l 0.0687,1.83305 0.63102,0.97904 c 0.34706,0.53847 0.80904,1.33595 1.02663,1.77219 0.21759,0.43623 0.48031,0.89049 0.58383,1.00946 0.25647,0.29477 2.56877,4.82081 3.23939,6.34072 0.29856,0.67666 0.81019,1.79163 1.13695,2.4777 0.32677,0.68607 0.59412,1.31566 0.59412,1.39906 0,0.0834 0.22059,0.65773 0.4902,1.27627 0.26962,0.61853 0.6675,1.67621 0.88419,2.35039 0.21668,0.67418 0.60845,1.87473 0.87059,2.66788 0.26214,0.79316 0.60665,1.96126 0.76557,2.59578 0.15892,0.63452 0.38692,1.51059 0.50666,1.94683 0.11973,0.43623 0.38986,1.76657 0.60028,2.9563 0.21043,1.18973 0.44026,2.48762 0.51073,2.88419 0.0705,0.39658 0.16417,1.3051 0.20821,2.01894 0.044,0.71384 0.14488,1.8862 0.2241,2.60525 0.15905,1.44365 -0.0494,7.89022 -0.27955,8.6434 -0.11667,0.38189 -0.237,1.09396 -0.53609,3.17233 -0.18934,1.31564 -0.95052,3.88127 -2.03231,6.84996 -1.31948,3.62105 -2.32205,5.74369 -3.96841,8.40206 -3.04217,4.91215 -5.88582,7.94698 -11.01459,11.75515 -2.09305,1.55412 -2.76792,2.1712 -4.21454,3.85372 -1.72751,2.00921 -3.6551,4.91672 -4.94767,7.46286 -0.55365,1.09058 -1.03626,1.98288 -1.07247,1.98288 -0.0362,0 -0.3924,-0.63272 -0.79152,-1.40604 z M 80.065834,166.69865 c -0.51555,-0.39479 -0.95491,-0.76614 -0.97636,-0.82523 -0.0214,-0.0591 0.39222,-0.65474 0.91926,-1.32368 1.53835,-1.95255 2.21533,-2.9561 2.29309,-3.39922 0.04,-0.22782 0.13458,-1.29028 0.21022,-2.36104 0.12587,-1.78175 0.35126,-3.47071 0.96224,-7.21048 0.1231,-0.7535 0.25538,-1.66203 0.29395,-2.01894 0.0386,-0.35693 0.16797,-1.10321 0.28756,-1.65842 0.11959,-0.55521 0.34344,-1.59352 0.49745,-2.30735 0.15401,-0.71384 0.30644,-1.49257 0.33874,-1.73052 0.0323,-0.23795 0.18825,-0.95178 0.34656,-1.58631 0.75726,-3.03513 0.92226,-3.67108 1.17861,-4.5426 0.15165,-0.51556 0.44258,-1.58631 0.64651,-2.37947 0.50986,-1.98298 2.75364,-8.5995 3.57,-10.52731 0.88278,-2.08465 1.67821,-3.80883 2.10611,-4.5652 l 0.46149,-0.81575 1.48799,-0.10143 c 1.35776,-0.0925 7.780316,0.14423 8.025686,0.29588 0.0573,0.0354 1.13342,0.19625 2.3914,0.35743 2.33939,0.29973 3.48589,0.48053 4.37829,0.69044 0.60715,0.14282 0.60427,0.19898 -0.098,1.90338 -0.2778,0.67418 -0.56268,1.3718 -0.63307,1.55026 -0.0821,0.20808 -0.24548,0.32167 -0.45555,0.31667 -0.18016,-0.004 -3.53984,-0.0934 -7.46595,-0.19812 -3.926106,-0.10468 -7.194296,-0.15775 -7.262636,-0.11795 -0.15626,0.091 -0.67349,1.26256 -1.098,2.48701 -0.17874,0.51555 -0.4113,1.13205 -0.5168,1.36999 -0.72138,1.62701 -2.61603,7.98245 -3.15984,10.59943 -0.10713,0.51554 -0.35614,1.5863 -0.55336,2.37945 -0.36625,1.47297 -0.47331,2.01155 -0.60198,3.02841 -0.0401,0.31726 -0.17101,1.09599 -0.29083,1.73052 -0.56234,2.978 -1.63428,12.30766 -1.44861,12.60807 0.0285,0.0462 -0.0123,0.43728 -0.0908,0.8691 -0.24463,1.34597 -0.85711,2.26372 -1.88573,2.82562 -0.21811,0.11915 -0.39657,0.28798 -0.39657,0.37519 0,0.0872 -0.31243,0.8156 -0.69427,1.61865 -0.38185,0.80306 -0.883,1.89814 -1.11367,2.43352 -0.23066,0.53538 -0.48607,0.96766 -0.56756,0.96061 -0.0815,-0.007 -0.56999,-0.33581 -1.08554,-0.73061 z m 102.674856,-0.59052 c -0.34164,-0.73367 -0.76971,-1.69802 -0.95126,-2.14301 -0.46786,-1.14676 -0.89835,-1.8322 -1.21352,-1.93223 -0.14939,-0.0474 -0.44697,-0.29365 -0.66128,-0.54718 -0.83134,-0.98348 -1.1065,-2.08394 -1.35096,-5.40297 -0.56266,-7.63963 -1.89715,-15.21928 -3.90317,-22.16944 -0.72543,-2.5134 -2.03183,-6.33398 -2.55573,-7.4743 -0.15198,-0.3308 -0.42526,-0.96744 -0.60729,-1.41477 l -0.33097,-0.81331 -0.88136,-0.0639 c -0.48475,-0.0351 -3.05532,-0.0139 -5.71239,0.0471 -2.65707,0.0611 -5.67557,0.11514 -6.70779,0.12014 l -1.87676,0.009 -0.23045,-0.54079 c -0.45065,-1.05753 -1.05781,-2.90177 -0.98069,-2.97889 0.0431,-0.0431 0.33414,-0.11689 0.64678,-0.16399 0.64127,-0.0966 2.81737,-0.46241 3.84266,-0.64594 0.37316,-0.0668 1.18434,-0.16244 1.80263,-0.21254 0.61829,-0.0501 1.93534,-0.18368 2.92678,-0.29684 2.05241,-0.23424 6.71923,-0.27834 7.27065,-0.0687 0.28284,0.10754 0.56813,0.5576 1.2401,1.9563 0.48,0.99915 0.9756,2.11963 1.10133,2.48995 0.12573,0.37032 0.5033,1.32325 0.83905,2.11763 0.33575,0.79437 0.72783,1.80123 0.87129,2.23746 0.14346,0.43624 0.40613,1.18252 0.58372,1.65841 0.17758,0.4759 0.43585,1.25463 0.57393,1.73052 0.13808,0.47589 0.5342,1.77378 0.88026,2.8842 1.04644,3.35768 2.77806,10.60397 3.22214,13.48361 0.0917,0.59487 0.22647,1.27626 0.29941,1.51421 0.0729,0.23794 0.22747,1.08157 0.34341,1.87472 0.11593,0.79316 0.27519,1.83147 0.35389,2.30736 0.0787,0.47589 0.18179,1.35196 0.22907,1.94683 0.0473,0.59486 0.18001,1.82786 0.29494,2.73998 0.11492,0.91213 0.23203,2.02881 0.26024,2.48152 0.0464,0.74464 0.13181,0.93023 0.89591,1.94683 0.46453,0.61805 0.89686,1.18862 0.96072,1.26794 0.753,0.9352 1.2672,1.65487 1.2672,1.77356 0,0.13161 -1.88456,1.61537 -2.05172,1.61537 -0.0383,0 -0.34913,-0.60027 -0.69077,-1.33394 z"
               style="fill:#3b0000;fill-opacity:1;stroke:none;stroke-width:0.42627528;stroke-miterlimit:4;stroke-dasharray:none" />
            <path
               inkscape:connector-curvature="0"
               id="path4664"
               d="M 111.73365,35.852046 C 95.536994,39.301911 80.25612,46.689777 68.129783,57.409689 59.48726,65.049842 55.068157,70.222122 49.041663,79.752254 42.707692,89.768776 39.933694,96.125456 36.81288,107.77227 c -9.6832,36.13737 3.171381,75.9517 32.37753,100.28284 l 2.34e-4,-8.3e-4 c 4.96023,4.1334 15.545235,10.83234 21.415603,13.5542 14.508523,6.72713 29.651283,9.8313 45.261843,9.27829 11.65571,-0.41291 25.38996,-3.57391 36.25178,-8.34352 14.19823,-6.23472 25.5232,-14.8382 36.60193,-27.80596 3.67518,-4.30185 11.25391,-16.4933 13.55636,-21.80722 10.13927,-23.40102 11.34834,-48.25894 3.8581,-71.14121 l -21.31578,4.72717 -74.25146,16.67815 c -24.83851,5.57913 -45.882382,10.27592 -59.430005,13.27623 l 3.631219,19.98307 59.948956,-13.47602 c 41.39846,-9.30595 74.13856,-16.41753 74.19547,-16.11605 0.7709,4.082 -0.42941,17.74867 -2.14926,24.46838 -2.34407,9.1586 -3.69443,12.14746 -9.93413,22.00042 -5.00583,7.9037 -6.03837,9.31467 -8.80791,12.03749 -8.19351,8.05525 -15.13756,12.88142 -24.51544,17.03804 -20.22044,8.96252 -42.65876,8.8719 -63.15783,-0.25512 -12.533822,-5.58055 -24.367997,-15.71166 -31.876602,-27.28938 -2.484903,-3.83157 -6.125691,-10.66477 -7.201382,-13.51555 l -0.646326,-1.71261 c -3.03651,-7.15457 -4.409638,-17.9483 -4.685951,-20.34152 -0.199456,-0.98332 -0.285023,-3.57583 -0.282604,-8.28515 0.005,-9.6665 2.194878,-20.04032 6.235972,-29.53914 2.25595,-5.302764 7.830475,-14.273904 11.744995,-18.901584 10.711564,-12.663015 25.673886,-21.551457 41.936618,-25.207695 4.1454,-0.931983 8.37535,-1.524018 12.64084,-1.75194 17.17362,-0.917641 34.22225,3.919573 48.10267,13.64829 4.42113,3.098746 8.37138,6.490605 11.9049,10.233823 l 24.04981,-4.965765 C 197.56796,54.137856 175.226,39.926412 150.13384,35.233841 137.48249,32.867866 124.33106,33.168818 111.73365,35.852046 Z"
               style="fill:#1f0000;fill-opacity:1;stroke:none;stroke-width:2.13137627;stroke-miterlimit:4;stroke-dasharray:none;filter:url(#filter6208)"
               inkscape:export-xdpi="103.69786"
               inkscape:export-ydpi="103.69786" />
            <path
               inkscape:export-ydpi="103.69786"
               inkscape:export-xdpi="103.69786"
               style="fill:#f7ca18;fill-opacity:1;stroke:none;stroke-width:2.13137627;stroke-miterlimit:4;stroke-dasharray:none"
               d="M 117.79878,36.52595 C 101.60213,39.975815 86.321253,47.363681 74.194916,58.083593 65.552393,65.723746 61.13329,70.896026 55.106796,80.426158 48.772825,90.44268 45.998827,96.79936 42.878013,108.44617 c -9.6832,36.13737 3.171381,75.9517 32.37753,100.28284 l 2.34e-4,-8.3e-4 c 4.96023,4.1334 15.545235,10.83234 21.415603,13.5542 14.50852,6.72713 29.65128,9.8313 45.26184,9.27829 11.65571,-0.41291 25.38996,-3.57391 36.25178,-8.34352 14.19823,-6.23472 25.5232,-14.8382 36.60193,-27.80596 3.67518,-4.30185 11.25391,-16.4933 13.55636,-21.80722 10.13927,-23.40102 11.34834,-48.25894 3.8581,-71.14121 l -21.31578,4.72717 -74.25146,16.67815 c -24.83851,5.57913 -45.882379,10.27592 -59.430002,13.27623 l 3.631219,19.98307 59.948953,-13.47602 c 41.39846,-9.30595 74.13856,-16.41753 74.19547,-16.11605 0.7709,4.082 -0.42941,17.74867 -2.14926,24.46838 -2.34407,9.1586 -3.69443,12.14746 -9.93413,22.00042 -5.00583,7.9037 -6.03837,9.31467 -8.80791,12.03749 -8.19351,8.05525 -15.13756,12.88142 -24.51544,17.03804 -20.22044,8.96252 -42.65876,8.8719 -63.15783,-0.25512 -12.533819,-5.58055 -24.367994,-15.71166 -31.876599,-27.28938 -2.484903,-3.83157 -6.125691,-10.66477 -7.201382,-13.51555 l -0.646326,-1.71261 c -3.03651,-7.15457 -4.409638,-17.9483 -4.685951,-20.34152 -0.199456,-0.98332 -0.285023,-3.57583 -0.282604,-8.28515 0.005,-9.6665 2.194878,-20.04032 6.235972,-29.53914 2.25595,-5.30276 7.830475,-14.2739 11.744995,-18.90158 10.711564,-12.663015 25.673885,-21.551457 41.936615,-25.207695 4.1454,-0.931983 8.37535,-1.524018 12.64084,-1.75194 17.17362,-0.917641 34.22225,3.919573 48.10267,13.64829 4.42113,3.098746 8.37138,6.490605 11.9049,10.233823 l 24.04981,-4.965765 C 203.63309,54.81176 181.29113,40.600316 156.19897,35.907745 143.54762,33.54177 130.39619,33.842722 117.79878,36.52595 Z"
               id="path6174"
               inkscape:connector-curvature="0" />
          </g>
          <text
             xml:space="preserve"
             style="font-style:normal;font-weight:normal;font-size:12.31565666px;line-height:1.25;font-family:sans-serif;letter-spacing:0px;word-spacing:0px;fill:#303030;fill-opacity:1;stroke:none;stroke-width:0.30789143;filter:url(#filter6170)"
             x="42.991444"
             y="36.346748"
             id="text4682"
             inkscape:label="rantham pest shadow"><tspan
               sodipodi:role="line"
               id="tspan4680"
               x="42.991444"
               y="36.346748"
               style="font-style:normal;font-variant:normal;font-weight:normal;font-stretch:normal;font-size:29.55757904px;font-family:'Sitka Heading';-inkscape-font-specification:'Sitka Heading';fill:#303030;fill-opacity:1;stroke-width:0.30789143">RANTHAM PEST CONTROL, LLC</tspan></text>
          <text
             id="text5852"
             y="36.468716"
             x="44.089134"
             style="font-style:normal;font-weight:normal;font-size:12.31565666px;line-height:1.25;font-family:sans-serif;letter-spacing:0px;word-spacing:0px;fill:#060606;fill-opacity:1;stroke:none;stroke-width:0.30789143"
             xml:space="preserve"
             inkscape:label="ratham pest"><tspan
               style="font-style:normal;font-variant:normal;font-weight:normal;font-stretch:normal;font-size:29.55757904px;font-family:'Sitka Heading';-inkscape-font-specification:'Sitka Heading';fill:#060606;fill-opacity:1;stroke-width:0.30789143"
               y="36.468716"
               x="44.089134"
               id="tspan5850"
               sodipodi:role="line">RANTHAM PEST CONTROL, LLC</tspan></text>
        </g>
        <text
           id="text4728"
           y="17.609879"
           x="80.747337"
           style="font-style:normal;font-weight:normal;font-size:11.17033386px;line-height:1.25;font-family:sans-serif;letter-spacing:0px;word-spacing:0px;fill:#888888;fill-opacity:1;stroke:none;stroke-width:0.27925834;"
           xml:space="preserve"
           inkscape:label="quote"><tspan
             style="fill:#888888;fill-opacity:1;stroke-width:0.27925834;"
             y="17.609879"
             x="80.747337"
             id="tspan4726"
             sodipodi:role="line">&quot;Aiming to Provide You a Pest Free Environment.&quot;</tspan></text>
      </g>
    </g>
  </g>
</svg>
